<?xml version="1.0" encoding="us-ascii" standalone="no"?><svg xmlns="http://www.w3.org/2000/svg" xmlns:xlink="http://www.w3.org/1999/xlink" contentStyleType="text/css" height="142px" preserveAspectRatio="none" style="width:752px;height:142px;background:#FFFFFF;" version="1.1" viewBox="0 0 752 142" width="752px" zoomAndPan="magnify"><defs/><g><!--entity rook--><g id="elem_rook"><ellipse cx="20" cy="67.72" fill="#F1F1F1" rx="8" ry="8" style="stroke:#181818;stroke-width:0.5;"/><path d="M20,75.72 L20,102.72 M7,83.72 L33,83.72 M20,102.72 L7,117.72 M20,102.72 L33,117.72 " fill="none" style="stroke:#181818;stroke-width:0.5;"/><text fill="#000000" font-family="sans-serif" font-size="14" lengthAdjust="spacing" textLength="28" x="6" y="133.7532">rook</text></g><!--entity products--><g id="elem_products"><path d="M184.5,77.22 L184.5,101.22 M184.5,89.22 L201.5,89.22 " fill="none" style="stroke:#181818;stroke-width:0.5;"/><ellipse cx="213.5" cy="89.22" fill="#F1F1F1" rx="12" ry="12" style="stroke:#181818;stroke-width:0.5;"/><text fill="#000000" font-family="sans-serif" font-size="14" lengthAdjust="spacing" textLength="55" x="177.5" y="119.7532">products</text></g><!--entity weights--><g id="elem_weights"><rect fill="#F1F1F1" height="47.6094" rx="2.5" ry="2.5" style="stroke:#181818;stroke-width:0.5;" width="87" x="267.5" y="74.22"/><rect fill="#F1F1F1" height="10" style="stroke:#181818;stroke-width:0.5;" width="15" x="334.5" y="79.22"/><rect fill="#F1F1F1" height="2" style="stroke:#181818;stroke-width:0.5;" width="4" x="332.5" y="81.22"/><rect fill="#F1F1F1" height="2" style="stroke:#181818;stroke-width:0.5;" width="4" x="332.5" y="85.22"/><text fill="#000000" font-family="sans-serif" font-size="14" lengthAdjust="spacing" textLength="47" x="282.5" y="108.7532">weights</text></g><!--entity monitor--><g id="elem_monitor"><rect fill="#F1F1F1" height="37.6094" rx="2.5" ry="2.5" style="stroke:#181818;stroke-width:0.5;" width="67" x="389.5" y="79.22"/><text fill="#000000" font-family="sans-serif" font-size="14" lengthAdjust="spacing" textLength="47" x="399.5" y="103.7532">monitor</text></g><!--entity STS--><g id="elem_STS"><rect fill="#F1F1F1" height="37.6094" rx="2.5" ry="2.5" style="stroke:#181818;stroke-width:0.5;" width="116" x="492" y="79.22"/><text fill="#000000" font-family="sans-serif" font-size="14" lengthAdjust="spacing" textLength="96" x="502" y="103.7532">storage tracker</text></g><!--entity ST_DB--><g id="elem_ST_DB"><path d="M643,84.72 C643,74.72 689,74.72 689,74.72 C689,74.72 735,74.72 735,84.72 L735,111.3294 C735,121.3294 689,121.3294 689,121.3294 C689,121.3294 643,121.3294 643,111.3294 L643,84.72 " fill="#F1F1F1" style="stroke:#181818;stroke-width:0.5;"/><path d="M643,84.72 C643,94.72 689,94.72 689,94.72 C689,94.72 735,94.72 735,84.72 " fill="none" style="stroke:#181818;stroke-width:0.5;"/><text fill="#000000" font-family="sans-serif" font-size="14" lengthAdjust="spacing" textLength="72" x="653" y="113.2532">storage_db</text></g><!--entity frontend--><g id="elem_frontend"><rect fill="#F1F1F1" height="37.6094" rx="2.5" ry="2.5" style="stroke:#181818;stroke-width:0.5;" width="73" x="69.5" y="79.22"/><text fill="#000000" font-family="sans-serif" font-size="14" lengthAdjust="spacing" textLength="53" x="79.5" y="103.7532">frontend</text></g><!--link rook to frontend--><g id="link_rook_frontend"><path d="M34.11,98.22 C45.9,98.22 51.7,98.22 63.49,98.22 " fill="none" id="rook-to-frontend" style="stroke:#181818;stroke-width:1.0;"/><polygon fill="#181818" points="69.49,98.22,60.49,94.22,64.49,98.22,60.49,102.22,69.49,98.22" style="stroke:#181818;stroke-width:1.0;"/></g><!--link frontend to STS--><g id="link_frontend_STS"><path d="M119.03,79.15 C131.73,62.42 152.71,39.23 177.5,29.22 C234.99,6 397.61,9.84 456.5,29.22 C486.2,38.99 509.8853,58.0711 527.3653,74.8811 " fill="none" id="frontend-to-STS" style="stroke:#181818;stroke-width:1.0;"/><polygon fill="#181818" points="531.69,79.04,527.9756,69.9184,528.0861,75.5742,522.4303,75.6847,531.69,79.04" style="stroke:#181818;stroke-width:1.0;"/></g><!--link monitor to STS--><g id="link_monitor_STS"><path d="M456.73,98.22 C468.39,98.22 474.05,98.22 485.71,98.22 " fill="none" id="monitor-to-STS" style="stroke:#181818;stroke-width:1.0;"/><polygon fill="#181818" points="491.71,98.22,482.71,94.22,486.71,98.22,482.71,102.22,491.71,98.22" style="stroke:#181818;stroke-width:1.0;"/></g><!--link weights to monitor--><g id="link_weights_monitor"><path d="M354.75,98.22 C366.3,98.22 371.86,98.22 383.41,98.22 " fill="none" id="weights-to-monitor" style="stroke:#181818;stroke-width:1.0;"/><polygon fill="#181818" points="389.41,98.22,380.41,94.22,384.41,98.22,380.41,102.22,389.41,98.22" style="stroke:#181818;stroke-width:1.0;"/></g><!--link products to weights--><g id="link_products_weights"><path d="M232.74,98.22 C244.26,98.22 249.77,98.22 261.29,98.22 " fill="none" id="products-to-weights" style="stroke:#181818;stroke-width:1.0;"/><polygon fill="#181818" points="267.29,98.22,258.29,94.22,262.29,98.22,258.29,102.22,267.29,98.22" style="stroke:#181818;stroke-width:1.0;"/></g><!--link STS to ST_DB--><g id="link_STS_ST_DB"><path d="M608.1,98.22 C619.69,98.22 625.27,98.22 636.86,98.22 " fill="none" id="STS-to-ST_DB" style="stroke:#181818;stroke-width:1.0;"/><polygon fill="#181818" points="642.86,98.22,633.86,94.22,637.86,98.22,633.86,102.22,642.86,98.22" style="stroke:#181818;stroke-width:1.0;"/></g><!--SRC=[JOvB3i8m30NtFeNLFLTWWRX1sLVEfwMg6bUEAyJjYKMCs7bU_EAXg2mep1j0uBCaaZSUmkcCMY7oVd39HV6Lr-NP4bgCTYvhwq77eJPe8wfGtB8CI1N7nmY9b0BL_DkOKkYFq_tczLcuQ2u9m3pmSlrBVBBKVkoN7RkMeJkvl6Lk3MttMx6p7m00]--></g></svg>